<?xml version="1.0" encoding="UTF-8"?>
<svg xmlns="http://www.w3.org/2000/svg" width="1123.5267" height="1933.6595">
  <g transform="translate(-13.810292 -135)">
    <g fill="red" aria-label="परस्परोपग्रहोजीवानाम्" style="shape-inside:url(#rect34);white-space:pre" transform="matrix(1.15402 0 0 1.37984 -27.929893 -708.0268)">
      <path d="M143.99609 1890.5407h-10.21875v59.3438h-12.23437v-18.0469l-.1875-.047q-5.53125 3.5157-11.53125 3.5157-1.03125 0-2.90625-.1875t-4.07813-.9375q-2.20312-.7969-4.499996-2.2969-2.296875-1.5469-4.171875-4.1719-1.828125-2.6719-3.046875-6.6562-1.171875-3.9844-1.171875-9.6563v-20.8594H79.496094v-10.5468h64.499996zm-22.45312 0h-19.35938v21.6094q0 3.5625.65625 5.8594.70313 2.25 1.82813 3.5625 1.17187 1.3125 2.71875 1.8281 1.54687.4688 3.28125.4688 3.75 0 6.28125-1.7344 2.53125-1.7813 4.59375-5.0625z"/>
      <path d="M195.04297 1890.5407h-15.70313q1.78125 3.6563 2.8125 7.2188 1.07813 3.5156 1.07813 7.3594 0 3.4218-.9375 6.4218-.89063 3-2.8125 5.4375-1.92188 2.3907-4.92188 4.0782-2.95312 1.6875-7.07812 2.4375l-.0937.1875q1.96875 2.8125 3.98437 5.4375 2.0625 2.625 4.3125 5.1562 2.25 2.5313 4.78125 5.0156 2.53125 2.4844 5.53125 5.0157l-7.73437 8.5781q-3.70313-2.9063-7.125-6.375-3.42188-3.5156-6.51563-7.3125t-5.8125-7.6875-5.01562-7.5938q-2.25-3.7031-4.07813-7.0312-1.78125-3.375-3.04687-6.0469l10.35937-5.2969q1.59375 4.2188 3.42188 5.9532 1.82812 1.7343 3.84375 1.7343 1.3125 0 2.48437-.6093 1.17188-.6094 2.0625-1.7813.89063-1.2187 1.40625-2.9062.5625-1.7344.5625-3.9844 0-3.1406-1.125-6.75t-3.28125-6.6563h-25.6875v-10.5468h54.32813z"/>
      <path d="M252.13672 1890.5407h-23.625q1.78125 3.6563 2.76562 7.2188 1.03125 3.5156 1.03125 7.3594 0 1.3593-.14062 2.6718-.14063 1.3125-.375 2.625h21.32812v10.4532h-28.07812q-2.71875 1.8281-6.51563 2.625l-.0937.1875q1.35938 2.8125 3.04688 5.4375t3.75 5.1562q2.10937 2.5313 4.64062 5.0156 2.53125 2.4844 5.53125 5.0157l-7.73437 8.5781q-3.28125-2.9063-6.46875-6.4688-3.1875-3.6093-6.1875-7.5-2.95313-3.8906-5.625-7.9218-2.67188-4.0313-4.96875-7.8282-2.29688-3.8437-4.125-7.2656-1.82813-3.4219-3.09375-6.0937l10.35937-5.2969q1.78125 4.5469 3.75 6.6562 2.01563 2.0625 4.125 2.0625 1.21875 0 2.10938-.6562.9375-.6563 1.5-1.7813.60937-1.1718.89062-2.7656.28125-1.5937.28125-3.5156 0-3.75-1.07812-7.2188-1.07813-3.4687-3.32813-6.75h-24.04687v-10.5468h60.375zm53.25 0h-10.21875v59.3438h-12.23438v-18.0469l-.1875-.047q-5.53125 3.5157-11.53125 3.5157-1.03125 0-2.90625-.1875t-4.07812-.9375q-2.20313-.7969-4.5-2.2969-2.29688-1.5469-4.17188-4.1719-1.82812-2.6719-3.04687-6.6562-1.17188-3.9844-1.17188-9.6563v-20.8594h-10.45312v-10.5468h64.5zm-22.45313 0h-19.35937v21.6094q0 3.5625.65625 5.8594.70312 2.25 1.82812 3.5625 1.17188 1.3125 2.71875 1.8281 1.54688.4688 3.28125.4688 3.75 0 6.28125-1.7344 2.53125-1.7813 4.59375-5.0625z"/>
      <path d="M356.43359 1890.5407h-15.70312q1.78125 3.6563 2.8125 7.2188 1.07812 3.5156 1.07812 7.3594 0 3.4218-.9375 6.4218-.89062 3-2.8125 5.4375-1.92187 2.3907-4.92187 4.0782-2.95313 1.6875-7.07813 2.4375l-.0937.1875q1.96875 2.8125 3.98438 5.4375 2.0625 2.625 4.3125 5.1562 2.25 2.5313 4.78125 5.0156 2.53125 2.4844 5.53125 5.0157l-7.73438 8.5781q-3.70312-2.9063-7.125-6.375-3.42187-3.5156-6.51562-7.3125t-5.8125-7.6875-5.01563-7.5938q-2.25-3.7031-4.07812-7.0312-1.78125-3.375-3.04688-6.0469l10.35938-5.2969q1.59375 4.2188 3.42187 5.9532 1.82813 1.7343 3.84375 1.7343 1.3125 0 2.48438-.6093 1.17187-.6094 2.0625-1.7813.89062-1.2187 1.40625-2.9062.5625-1.7344.5625-3.9844 0-3.1406-1.125-6.75t-3.28125-6.6563h-25.6875v-10.5468h54.32812z"/>
      <path d="M385.96484 1890.5407h-10.21875v59.3438h-12.23437v-59.3438h-10.35938v-10.5468h32.8125zm-21.23437-9.2343-1.35938-2.5313q-2.4375-4.5937-4.3125-7.8281-1.82812-3.2344-3.375-5.3438-1.5-2.1562-2.76562-3.3281-1.26563-1.2187-2.53125-1.7812-1.3125-.6094-2.71875-.75-1.45313-.1407-3.23438-.1407h-9.5625v-10.5h8.71875q3.70313 0 6.375.2344 2.625.2344 4.73438 1.2656 2.10937.9844 3.98437 3 1.92188 2.0157 4.125 5.625 2.25 3.5625 5.10938 8.9532 2.85937 5.3906 6.89062 13.125z"/>
      <path d="M447.18359 1890.5407h-10.21875v59.3438h-12.23437v-18.0469l-.1875-.047q-5.53125 3.5157-11.53125 3.5157-1.03125 0-2.90625-.1875t-4.07813-.9375q-2.20312-.7969-4.5-2.2969-2.29687-1.5469-4.17187-4.1719-1.82813-2.6719-3.04688-6.6562-1.17187-3.9844-1.17187-9.6563v-20.8594h-10.45313v-10.5468h64.5zm-22.45312 0h-19.35938v21.6094q0 3.5625.65625 5.8594.70313 2.25 1.82813 3.5625 1.17187 1.3125 2.71875 1.8281 1.54687.4688 3.28125.4688 3.75 0 6.28125-1.7344 2.53125-1.7813 4.59375-5.0625z"/>
      <path d="m489.69922 1931.1814-25.73438 20.8593-7.26562-8.4843 33.28125-24.9844v-28.0313h-17.15625v28.2188q0 1.3125-.0937 2.5781-.0469 1.2188-.42188 2.1563-.32812.9375-1.125 1.5468-.75.5625-2.10937.5625-1.875 0-3.98438-1.0312-2.10937-1.0781-4.17187-2.7656-2.0625-1.7344-3.9375-3.8438-1.875-2.1562-3.32813-4.3125-1.40625-2.2031-2.25-4.2187-.84375-2.0157-.84375-3.4688 0-.6094.1875-1.2187.23438-.6094.84375-1.0782.60938-.4687 1.64063-.75 1.07812-.2812 2.76562-.2812h4.6875v-12.0938h-16.78125v-10.5468h68.53125v10.5468h-10.21875v59.3907h-12.23437v-18.6563z"/>
      <path d="M545.43359 1935.5407q3.51563-1.3593 5.10938-2.7656 1.59375-1.4062 1.59375-3.6094 0-1.2656-.5625-2.3437-.51563-1.125-1.73438-1.9219-1.17187-.8437-3.04687-1.3125-1.875-.4687-4.5-.4687-2.20313 0-4.3125.4218-2.10938.375-3.75 1.4532-1.64063 1.0312-2.67188 2.8125-.98437 1.7812-.98437 4.5 0 2.8593 1.07812 5.3437 1.07813 2.4375 2.85938 4.5469t4.07812 3.8906q2.34375 1.7344 4.82813 3.1875 2.48437 1.4531 4.92187 2.5313 2.48438 1.125 4.59375 1.9218l-4.64062 9.8907q-3.65625-1.5469-7.3125-3.3282-3.60938-1.7812-6.9375-3.8906-3.28125-2.0625-6.09375-4.5469-2.8125-2.4375-4.92188-5.3437-2.0625-2.9531-3.23437-6.4219-1.17188-3.4687-1.17188-7.5469 0-4.125 1.17188-7.3125 1.21875-3.2343 3.32812-5.625-.98437-1.4531-1.82812-3.0468-.84375-1.6407-1.45313-3.2813-.5625-1.6406-.9375-3.2344-.32812-1.6406-.32812-3.1406 0-1.9687.65625-3.7969.65625-1.8281 2.10937-3.2343 1.5-1.4063 3.84375-2.25 2.34375-.8438 5.71875-.8438h19.125v-6.2344h-40.875v-10.5468h64.07813v10.5468h-10.875v16.2188h-27.98438q-.60937 0-1.26562.1875-.60938.1406-1.17188.5625-.51562.375-.89062 1.0781-.32813.7031-.32813 1.7813 0 1.0781.28125 2.0156.32813.8906.84375 1.6875 4.92188-1.6406 10.45313-1.6406 4.40625 0 8.34375 1.0312 3.98437.9844 6.98437 3.0469t4.73438 5.25q1.78125 3.1875 1.78125 7.5469 0 3.75-1.26563 6.4687-1.26562 2.6719-3.32812 4.6406-2.01563 1.9688-4.59375 3.375-2.57813 1.3594-5.25 2.3907z"/>
      <path d="M602.76172 1890.5407h-10.21875v59.3438h-12.23438v-59.3438h-10.35937v-10.5468h32.8125zm-21.23438-9.2343-1.35937-2.5313q-2.4375-4.5937-4.3125-7.8281-1.82813-3.2344-3.375-5.3438-1.5-2.1562-2.76563-3.3281-1.26562-1.2187-2.53125-1.7812-1.3125-.6094-2.71875-.75-1.45312-.1407-3.23437-.1407h-9.5625v-10.5h8.71875q3.70312 0 6.375.2344 2.625.2344 4.73437 1.2656 2.10938.9844 3.98438 3 1.92187 2.0157 4.125 5.625 2.25 3.5625 5.10937 8.9532 2.85938 5.3906 6.89063 13.125z"/>
      <path d="M680.19922 1890.5407h-10.21875v59.3438h-12.23438v-36.9375h-11.85937l-.0469.1406q2.53125 2.5313 3.75 5.7188t1.21875 6.4218q0 2.9532-1.03125 5.7188-.98437 2.7656-3.04687 4.9219-2.01563 2.1562-5.10938 3.4687-3.09375 1.2656-7.26562 1.2656-4.73438 0-8.57813-1.6875-3.79687-1.6875-6.89062-4.5937-3.04688-2.9531-5.39063-6.8438-2.29687-3.9375-3.98437-8.3906-1.6875-4.5-2.85938-9.2812-1.125-4.7813-1.78125-9.4219l11.10938-2.0156q1.35937 8.625 3.375 14.4375 2.01562 5.7656 4.3125 9.2812 2.34375 3.5156 4.73437 5.0156 2.4375 1.4532 4.59375 1.4532 2.39063 0 4.03125-1.5938 1.6875-1.5937 1.6875-4.5937 0-1.5938-.5625-3.375-.5625-1.8282-1.6875-3.5157-1.125-1.7343-2.8125-3.2343t-3.9375-2.5782v-7.3125h28.03125v-11.8125h-58.26562v-10.5468h80.71875z"/>
      <path d="M709.73047 1890.5407h-10.21875v59.3438h-12.23438v-59.3438h-10.35937v-10.5468h10.54687q-.89062-4.3594-2.25-7.4063-1.35937-3.0469-2.95312-5.1094t-3.32813-3.2343q-1.6875-1.1719-3.28125-1.7813t-2.95312-.75q-1.40625-.1875-2.29688-.1875-4.45312 0-6.65625 1.9688-2.20312 1.9218-2.20312 4.875 0 2.8125 1.82812 5.9062 1.78125 3.0938 5.20313 6.2344h-13.5q-2.95313-3.5625-4.40625-7.3125-1.5-3.75-1.5-7.2656 0-3.0938 1.26562-5.8125 1.26563-2.7657 3.79688-4.7813t6.375-3.1875q3.79687-1.1719 8.95312-1.1719 7.125 0 12.23438 2.2969 5.15625 2.25 8.625 6.1875 3.46875 3.8906 5.48437 9.1875 2.01563 5.2969 2.85938 11.3438h10.96875z"/>
      <path d="M770.80859 1890.5407h-10.21875v59.3438h-12.23437v-13.7813l-.28125-.047q-2.8125 1.8281-5.8125 2.7187-2.95313.8438-5.90625.8438-4.3125 0-8.39063-1.7344-4.07812-1.7813-7.26562-4.8281-3.14063-3.0938-5.0625-7.1719-1.92188-4.125-1.92188-8.8125 0-4.3125 1.64063-8.0156 1.64062-3.75 4.45312-6.5157 2.8125-2.7656 6.60938-4.3125 3.79687-1.5937 8.10937-1.5937.75 0 2.15625.1406 1.40625.094 3.1875.5625 1.82813.4688 3.9375 1.4063 2.15625.8906 4.35938 2.4843l.1875-.047v-10.6407h-41.90625v-10.5468h64.35937zm-22.26562 21.75q-2.67188-3.1406-5.53125-4.3125-2.85938-1.1718-5.34375-1.1718-2.4375 0-4.54688.8906-2.0625.8437-3.60937 2.3437-1.5 1.4532-2.39063 3.375-.84375 1.9219-.84375 4.0313 0 2.0156.79688 4.0312.79687 1.9688 2.20312 3.5625 1.45313 1.5938 3.46875 2.625 2.0625.9844 4.59375.9844 2.48438 0 4.54688-.9844 2.0625-.9843 3.51562-2.5312 1.5-1.5469 2.29688-3.4219.84375-1.9219.84375-3.75z"/>
      <path d="M800.33984 1890.5407h-10.21875v59.3438h-12.23437v-59.3438h-10.35938v-10.5468h32.8125z"/>
      <path d="M866.80859 1890.5407h-10.21875v59.3438h-13.125v-33.1406h-20.29687q0 3.1875-.0937 5.4375-.0937 2.2031-.51563 3.6093-.42187 1.3594-1.3125 2.0157-.89062.6093-2.48437.6093-1.96875 0-3.89063-.7968-1.875-.7969-3.5625-2.1094-1.64062-1.3594-3.04687-3.0938-1.35938-1.7812-2.39063-3.7031-.98437-1.9219-1.54687-3.8437-.5625-1.9688-.5625-3.7032 0-1.7343.51562-2.7187.5625-1.0313 1.54688-1.5.98437-.4688 2.39062-.5625 1.40625-.1406 3.1875-.1406h32.0625v-15.7032h-46.40625v-10.5468h69.75z"/>
      <path d="M896.33984 1890.5407h-10.21875v59.3438h-12.23437v-59.3438h-10.35938v-10.5468h32.8125z"/>
      <path d="M965.19922 1890.5407h-10.21875v59.3438h-12.23438v-24.2813h-21.04687v6.7032q0 .9375-.0937 1.9687-.0469.9844-.42188 1.8281-.32812.8438-1.03125 1.4063-.70312.5625-1.96875.5625-1.73437 0-3.75-.9844-2.01562-1.0312-4.07812-2.6719-2.0625-1.6406-3.98438-3.75-1.875-2.1562-3.32812-4.3593-1.45313-2.2032-2.34375-4.3125-.89063-2.1563-.89063-3.8438 0-.5625.14063-1.125.14062-.5625.60937-.9844.51563-.4218 1.35938-.7031.89062-.2812 2.39062-.2812h5.15625v-24.5157h-16.40625v-10.5468h72.14063zm-43.5 0v24.5157h21.04687v-24.5157zm36.9375 85.5469-18.32813-17.1094 7.64063-8.1562 18.46875 16.9687z"/>
    </g>
    <g fill="#f14a1c" transform="translate(-3.8312564 .46721828) scale(1.32307)">
      <path d="M791.378 1373.974H62.944l220.763-612.477-112.163-314.424 151.463-307.6h208.306l151.463 307.6-112.162 314.424zm-707.083-15h685.731L554.679 761.523l111.838-313.515-144.538-293.534H332.341L187.804 448.008l111.838 313.515-.912 2.53z"/>
      <path d="M409.661 612.683V432.974h124.855v35h-89.855v179.709H319.807v-35z"/>
      <path d="M319.807 557.828V432.974h35v89.854h179.709v124.855h-35v-89.855zm107.354-310.089c-24.302 0-47.538-9.238-67.195-26.714-18.905-16.808-33.142-39.972-41.169-66.989l14.379-4.272c14.748 49.63 52.517 82.976 93.985 82.976s79.238-33.345 93.985-82.976l14.379 4.272c-8.028 27.017-22.264 50.181-41.169 66.989-19.657 17.476-42.893 26.714-67.195 26.714z"/>
      <circle cx="337.30701" cy="314.23099" r="16.667"/>
      <circle cx="427.16101" cy="314.23099" r="16.667"/>
      <circle cx="427.16101" cy="192.069" r="16.667"/>
      <circle cx="517.01599" cy="314.23099" r="16.667"/>
      <path d="M383.401 1190.165v10.913l-49.283-5.456z"/>
      <path d="M428.486 1155.452c22.188 0 40.172 17.986 40.172 40.17s-17.983 40.17-40.172 40.17c-22.183 0-40.17-17.986-40.17-40.17s17.988-40.17 40.17-40.17m0-7.42c-12.712 0-24.663 4.948-33.649 13.936-8.99 8.991-13.94 20.942-13.94 33.654 0 12.713 4.95 24.662 13.94 33.655 8.986 8.985 20.938 13.936 33.649 13.936s24.667-4.95 33.654-13.936c8.992-8.993 13.941-20.942 13.941-33.655 0-12.712-4.949-24.663-13.941-33.654-8.987-8.988-20.942-13.936-33.654-13.936z"/>
      <path d="M433.946 1151.048h-10.915l5.46-49.284zm-10.915-.192-10.545 2.804-7.398-49.027zm10.915 0 10.545 2.804 7.4-49.027zm-10.915 89.341h10.911l-5.456 49.282zm10.911.191 10.549-2.804 7.4 49.027zm-10.911 0-10.545-2.804-7.398 49.027zm-39.82-39.31 2.804 10.544-49.028 7.399zm0-10.913 2.804-10.544-49.028-7.403zm9.878 33.117 7.715 7.716-38.703 30.994zm7.581 7.85 9.441 5.473-29.436 39.902zm-7.716-7.714-5.473-9.442-39.902 29.435zm70.913-.136-7.715 7.716 38.703 30.994zm-7.58 7.85-9.442 5.473 29.435 39.902zm7.715-7.714 5.473-9.442 39.901 29.435zm-63.198-62.683-7.715 7.714-30.988-38.707zm-7.85 7.58-5.473 9.442-39.902-29.436zm7.716-7.719 9.441-5.468-29.436-39.902zm55.482-.354 7.715 7.719 30.988-38.708zm7.85 7.585 5.473 9.44 39.901-29.435zm-7.715-7.721-9.442-5.472 29.435-39.899zm16.265 40.972v-10.913l49.282 5.457zm.19-10.913-2.804-10.544 49.027-7.403zm0 10.913-2.804 10.544 49.027 7.403z"/>
      <path d="M428.486 1107.303c48.777 0 88.319 39.542 88.319 88.319 0 48.776-39.542 88.319-88.319 88.319-48.771 0-88.314-39.543-88.314-88.319 0-48.777 39.543-88.319 88.314-88.319m0-11.133c-13.417 0-26.445 2.631-38.712 7.822-11.842 5.007-22.478 12.177-31.607 21.306-9.13 9.13-16.3 19.766-21.31 31.607-5.188 12.271-7.819 25.295-7.819 38.717s2.631 26.445 7.819 38.713c5.01 11.847 12.18 22.481 21.31 31.611 9.13 9.129 19.766 16.299 31.607 21.305 12.267 5.191 25.295 7.822 38.712 7.822 13.422 0 26.449-2.631 38.718-7.822 11.841-5.006 22.477-12.176 31.606-21.305 9.129-9.13 16.3-19.765 21.309-31.611 5.188-12.268 7.819-25.291 7.819-38.713s-2.631-26.446-7.819-38.712c-5.009-11.847-12.18-22.482-21.309-31.612-9.13-9.129-19.766-16.299-31.606-21.306-12.268-5.191-25.296-7.822-38.718-7.822z"/>
      <path d="M428.486 1107.303c48.777 0 88.319 39.542 88.319 88.319 0 48.776-39.542 88.319-88.319 88.319-48.776 0-88.314-39.543-88.314-88.319 0-48.777 39.538-88.319 88.314-88.319m0-11.133c-13.422 0-26.445 2.631-38.712 7.822-11.842 5.007-22.478 12.177-31.607 21.306-9.13 9.13-16.3 19.766-21.31 31.607-5.188 12.271-7.819 25.295-7.819 38.717s2.631 26.445 7.819 38.713c5.01 11.847 12.18 22.481 21.31 31.611 9.13 9.129 19.766 16.299 31.607 21.305 12.267 5.191 25.29 7.822 38.712 7.822s26.446-2.631 38.718-7.822c11.841-5.006 22.477-12.176 31.606-21.305 9.129-9.13 16.3-19.765 21.309-31.611 5.188-12.268 7.819-25.291 7.819-38.713s-2.631-26.446-7.819-38.712c-5.009-11.847-12.18-22.482-21.309-31.612-9.13-9.129-19.766-16.299-31.606-21.306-12.271-5.191-25.296-7.822-38.718-7.822z"/>
      <path d="m463.911 1167.939-7.72-7.718 38.707-30.991zm-41.305-59.953c0-2.868-2.322-5.192-5.192-5.192-2.868 0-5.196 2.324-5.196 5.192s2.328 5.197 5.196 5.197c2.87.001 5.192-2.329 5.192-5.197z"/>
      <path d="M417.414 1114.854c-3.786 0-6.866-3.081-6.866-6.867 0-3.781 3.08-6.862 6.866-6.862 3.787 0 6.862 3.081 6.862 6.862 0 3.785-3.075 6.867-6.862 6.867zm0-10.39c-1.942 0-3.526 1.58-3.526 3.522 0 1.947 1.584 3.526 3.526 3.526s3.521-1.579 3.521-3.526c.001-1.942-1.579-3.522-3.521-3.522zm-17.723 9.23c0-2.869-2.324-5.197-5.196-5.197-2.869 0-5.192 2.328-5.192 5.197 0 2.868 2.323 5.191 5.192 5.191 2.872.001 5.196-2.322 5.196-5.191z"/>
      <path d="M394.495 1120.556c-3.781 0-6.862-3.076-6.862-6.861 0-3.786 3.081-6.867 6.862-6.867 3.786 0 6.866 3.081 6.866 6.867 0 3.784-3.08 6.861-6.866 6.861zm0-10.389c-1.942 0-3.522 1.583-3.522 3.527 0 1.942 1.58 3.521 3.522 3.521 1.947 0 3.526-1.579 3.526-3.521 0-1.944-1.579-3.527-3.526-3.527zm-15.771 15.819c0-2.869-2.323-5.192-5.191-5.192-2.869 0-5.197 2.323-5.197 5.192 0 2.868 2.328 5.195 5.197 5.195 2.867.001 5.191-2.327 5.191-5.195z"/>
      <path d="M373.532 1132.852c-3.787 0-6.867-3.08-6.867-6.865 0-3.786 3.08-6.862 6.867-6.862 3.78 0 6.861 3.076 6.861 6.862.001 3.784-3.08 6.865-6.861 6.865zm0-10.388c-1.948 0-3.527 1.58-3.527 3.522s1.579 3.525 3.527 3.525c1.941 0 3.522-1.583 3.522-3.525s-1.58-3.522-3.522-3.522z"/>
      <circle cx="358.69901" cy="1141.407" r="5.1950002"/>
      <path d="M358.699 1148.272c-1.835 0-3.557-.717-4.854-2.011-1.298-1.299-2.012-3.021-2.012-4.855s.714-3.556 2.012-4.854c1.298-1.293 3.02-2.012 4.854-2.012s3.557.719 4.854 2.012c1.294 1.299 2.008 3.021 2.008 4.854 0 1.835-.714 3.557-2.008 4.855-1.297 1.295-3.02 2.011-4.854 2.011zm0-10.392c-.943 0-1.826.369-2.492 1.035s-1.034 1.549-1.034 2.491c0 .943.368 1.827 1.034 2.493s1.549 1.034 2.492 1.034c.938 0 1.826-.368 2.492-1.034s1.029-1.55 1.029-2.493c0-.942-.363-1.825-1.029-2.491s-1.553-1.035-2.492-1.035zm-8.498 20.095c-2.029-2.03-5.317-2.03-7.347 0-2.029 2.024-2.029 5.313 0 7.343 2.029 2.029 5.317 2.029 7.347 0 2.029-2.031 2.029-5.319 0-7.343z"/>
      <path d="M346.527 1168.51c-1.834 0-3.556-.714-4.854-2.012-2.674-2.674-2.674-7.031 0-9.706 1.299-1.297 3.021-2.011 4.854-2.011 1.835 0 3.558.714 4.855 2.011 2.674 2.675 2.674 7.032 0 9.706-1.297 1.298-3.02 2.012-4.855 2.012zm0-10.389c-.938 0-1.825.364-2.492 1.03-1.371 1.375-1.371 3.613 0 4.984.667.666 1.554 1.034 2.492 1.034.943 0 1.826-.368 2.492-1.034 1.377-1.371 1.377-3.609 0-4.984-.665-.666-1.548-1.03-2.492-1.03zm-2.458 23.37c-2.028-2.03-5.316-2.03-7.347 0-2.028 2.029-2.028 5.316 0 7.346 2.03 2.029 5.318 2.029 7.347 0 2.026-2.029 2.026-5.316 0-7.346z"/>
      <path d="M340.396 1192.03c-1.835 0-3.557-.714-4.854-2.012-2.678-2.679-2.678-7.031 0-9.709 1.294-1.295 3.02-2.008 4.854-2.008 1.83 0 3.557.713 4.851 2.008 1.298 1.297 2.012 3.021 2.012 4.854 0 1.835-.714 3.557-2.012 4.854-1.294 1.299-3.02 2.013-4.851 2.013zm0-10.387c-.943 0-1.83.363-2.492 1.029-1.376 1.376-1.376 3.608 0 4.984.666.667 1.549 1.034 2.492 1.034.939 0 1.826-.367 2.492-1.034.666-.666 1.03-1.549 1.03-2.492 0-.938-.364-1.827-1.03-2.492-.665-.666-1.552-1.029-2.492-1.029zm.217 19.435c-2.869 0-5.197 2.323-5.197 5.192 0 2.872 2.328 5.197 5.197 5.197 2.868 0 5.191-2.325 5.191-5.197.001-2.864-2.323-5.192-5.191-5.192z"/>
      <path d="M340.613 1213.137c-3.786 0-6.867-3.081-6.867-6.866 0-3.781 3.081-6.863 6.867-6.863 1.83 0 3.557.715 4.851 2.013 1.298 1.294 2.012 3.021 2.012 4.851 0 3.784-3.081 6.865-6.863 6.865zm0-10.389c-1.947 0-3.526 1.579-3.526 3.522 0 1.946 1.579 3.525 3.526 3.525 1.942 0 3.521-1.579 3.521-3.525 0-.939-.363-1.826-1.029-2.491-.666-.663-1.553-1.031-2.492-1.031z"/>
      <circle cx="346.315" cy="1229.188" r="5.1939998"/>
      <path d="M346.315 1236.052c-3.786 0-6.862-3.077-6.862-6.862 0-3.786 3.076-6.866 6.862-6.866s6.867 3.08 6.867 6.866c0 1.835-.714 3.557-2.012 4.854-1.297 1.294-3.02 2.008-4.855 2.008zm0-10.389c-1.942 0-3.521 1.584-3.521 3.526s1.579 3.522 3.521 3.522c.943 0 1.826-.363 2.492-1.03.667-.666 1.034-1.554 1.034-2.492.001-1.942-1.582-3.526-3.526-3.526zm12.298 19.298c-2.874 0-5.197 2.327-5.197 5.196s2.323 5.192 5.197 5.192c2.868 0 5.191-2.323 5.191-5.192s-2.323-5.196-5.191-5.196z"/>
      <path d="M358.613 1257.02c-3.787 0-6.867-3.075-6.867-6.862 0-3.786 3.08-6.866 6.867-6.866 3.781 0 6.861 3.08 6.861 6.866.001 3.78-3.079 6.862-6.861 6.862zm0-10.389c-1.948 0-3.527 1.584-3.527 3.526s1.579 3.521 3.527 3.521c1.942 0 3.521-1.579 3.521-3.521s-1.578-3.526-3.521-3.526zm135.68 7.139c2.03 2.025 5.318 2.029 7.348 0 2.029-2.028 2.029-5.317 0-7.346-2.029-2.03-5.317-2.03-7.348 0-2.029 2.028-2.029 5.317 0 7.346z"/>
      <path d="M497.967 1256.959c-1.835 0-3.556-.714-4.854-2.007-2.674-2.68-2.674-7.035 0-9.71 1.299-1.299 3.02-2.012 4.854-2.012 1.836 0 3.557.713 4.855 2.012 1.293 1.294 2.008 3.021 2.008 4.854s-.715 3.557-2.008 4.855c-1.299 1.294-3.019 2.008-4.855 2.008zm0-10.388c-.942 0-1.826.367-2.492 1.032-1.376 1.372-1.376 3.609 0 4.985.666.666 1.55 1.03 2.492 1.03.943 0 1.825-.364 2.492-1.03.666-.666 1.029-1.553 1.029-2.492 0-.943-.363-1.826-1.029-2.493-.667-.665-1.549-1.032-2.492-1.032zm8.498-13.043c2.029 2.03 5.318 2.03 7.348 0 2.023-2.024 2.023-5.316 0-7.346-2.029-2.025-5.318-2.025-7.348 0-2.029 2.03-2.029 5.322 0 7.346z"/>
      <path d="M510.139 1236.724c-1.835 0-3.563-.715-4.854-2.013-1.299-1.295-2.013-3.021-2.013-4.851 0-1.834.714-3.563 2.013-4.854 1.298-1.299 3.02-2.013 4.854-2.013 1.83 0 3.557.714 4.851 2.013 1.298 1.292 2.012 3.021 2.012 4.854 0 1.829-.714 3.556-2.012 4.851-1.295 1.298-3.021 2.013-4.851 2.013zm0-10.391c-.943 0-1.831.369-2.493 1.034-.665.662-1.033 1.55-1.033 2.493 0 .939.368 1.826 1.033 2.488.662.665 1.55 1.033 2.493 1.033.939 0 1.826-.368 2.491-1.03.666-.665 1.03-1.552 1.03-2.491 0-.943-.364-1.831-1.03-2.497-.665-.661-1.552-1.03-2.491-1.03zm2.457-16.319c2.029 2.025 5.317 2.028 7.347 0 2.03-2.03 2.03-5.318 0-7.347-2.029-2.03-5.317-2.03-7.347 0-2.029 2.028-2.029 5.316 0 7.347z"/>
      <path d="M516.27 1213.201c-1.835 0-3.557-.713-4.854-2.008-1.294-1.297-2.007-3.021-2.007-4.854s.713-3.556 2.007-4.854c1.298-1.297 3.02-2.012 4.854-2.012s3.557.715 4.854 2.012c1.298 1.299 2.013 3.021 2.013 4.854 0 1.831-.715 3.558-2.013 4.854-1.298 1.295-3.02 2.008-4.854 2.008zm0-10.388c-.939 0-1.826.369-2.492 1.035-.667.667-1.029 1.549-1.029 2.491 0 .939.362 1.827 1.029 2.493.666.667 1.553 1.029 2.492 1.029.943 0 1.826-.362 2.492-1.029.666-.666 1.034-1.554 1.034-2.493 0-.942-.368-1.824-1.034-2.491-.666-.666-1.549-1.035-2.492-1.035zm-.416-12.673c2.869 0 5.197-2.324 5.193-5.192.004-2.868-2.324-5.196-5.193-5.196-2.868.01-5.195 2.328-5.195 5.196s2.326 5.197 5.195 5.192z"/>
      <path d="M515.854 1191.81c-3.785 0-6.866-3.075-6.866-6.862 0-3.784 3.081-6.861 6.866-6.861 1.836 0 3.557.709 4.855 2.008 1.293 1.297 2.012 3.021 2.008 4.854.004 1.835-.71 3.558-2.008 4.854-1.299 1.294-3.02 2.007-4.855 2.007zm0-10.388c-1.942 0-3.525 1.584-3.525 3.525 0 1.942 1.583 3.522 3.525 3.522v1.67-1.67c.943 0 1.826-.364 2.492-1.029.668-.666 1.035-1.549 1.035-2.493 0-.943-.367-1.826-1.035-2.492-.666-.665-1.549-1.033-2.492-1.033z"/>
      <circle cx="510.147" cy="1162.03" r="5.1939998"/>
      <path d="M510.15 1168.896h-.003c-3.782 0-6.864-3.081-6.864-6.863 0-3.786 3.082-6.866 6.864-6.866 3.786 0 6.866 3.08 6.866 6.866 0 1.835-.714 3.558-2.012 4.855-1.293 1.294-3.015 2.008-4.851 2.008zm-.003-10.389c-1.943 0-3.521 1.578-3.521 3.525 0 1.943 1.578 3.522 3.521 3.522h.003c.939 0 1.827-.363 2.493-1.029.662-.667 1.03-1.555 1.03-2.493.001-1.941-1.579-3.525-3.526-3.525z"/>
      <circle cx="497.85501" cy="1141.063" r="5.1950002"/>
      <path d="M497.855 1147.927c-3.787 0-6.862-3.08-6.862-6.862 0-3.785 3.075-6.866 6.862-6.866 3.785 0 6.865 3.081 6.865 6.866.001 3.786-3.079 6.862-6.865 6.862zm0-10.389c-1.943 0-3.523 1.584-3.523 3.526 0 1.944 1.58 3.523 3.523 3.523v1.67-1.67c1.941 0 3.525-1.579 3.525-3.523.001-1.942-1.583-3.526-3.525-3.526zm-11.406-7.575c2.028-2.025 2.028-5.314 0-7.343-2.029-2.029-5.317-2.029-7.347 0-2.03 2.028-2.03 5.317 0 7.343 2.03 2.032 5.318 2.032 7.347 0z"/>
      <path d="M482.775 1133.155c-1.834 0-3.557-.714-4.854-2.007-2.675-2.679-2.675-7.035 0-9.71 1.298-1.298 3.021-2.012 4.854-2.012 1.835 0 3.557.714 4.854 2.012 1.298 1.294 2.013 3.021 2.013 4.855 0 1.828-.715 3.557-2.013 4.854-1.297 1.294-3.019 2.008-4.854 2.008zm0-10.387c-.938 0-1.827.367-2.492 1.032-1.372 1.372-1.372 3.609 0 4.986.665.665 1.554 1.029 2.492 1.029.943 0 1.826-.364 2.492-1.029.667-.667 1.034-1.554 1.034-2.492 0-.943-.367-1.827-1.034-2.494-.665-.665-1.548-1.032-2.492-1.032z"/>
      <circle cx="462.539" cy="1114.1219" r="5.1960001"/>
      <path d="M462.539 1120.985c-1.835 0-3.557-.716-4.854-2.008-1.298-1.299-2.013-3.021-2.013-4.855s.715-3.558 2.013-4.854c1.298-1.294 3.02-2.012 4.854-2.012s3.557.718 4.854 2.012c1.294 1.297 2.008 3.02 2.008 4.854s-.714 3.557-2.008 4.855c-1.297 1.293-3.02 2.008-4.854 2.008zm0-10.389c-.943 0-1.826.367-2.492 1.033-.666.667-1.034 1.55-1.034 2.493 0 .939.368 1.825 1.034 2.491.666.667 1.549 1.035 2.492 1.035.939 0 1.826-.368 2.492-1.035.666-.666 1.034-1.552 1.034-2.491 0-.943-.368-1.826-1.034-2.493-.666-.666-1.552-1.033-2.492-1.033zm-19.848 1.064c2.03-2.025 2.03-5.318 0-7.347-2.029-2.025-5.317-2.025-7.347 0-2.029 2.028-2.029 5.317 0 7.343 2.03 2.029 5.318 2.029 7.347 0z"/>
      <path d="M439.019 1114.854c-1.835 0-3.557-.714-4.855-2.013-2.674-2.674-2.674-7.031 0-9.705 1.299-1.298 3.021-2.012 4.855-2.012s3.557.714 4.854 2.012c2.673 2.674 2.673 7.031 0 9.705-1.298 1.299-3.02 2.013-4.854 2.013zm0-10.39c-.939 0-1.826.368-2.492 1.035-1.371 1.371-1.371 3.607 0 4.984.666.662 1.549 1.029 2.492 1.029.942 0 1.825-.367 2.492-1.029 1.375-1.377 1.375-3.613 0-4.989-.667-.662-1.55-1.03-2.492-1.03zm-16.438 178.832c0 2.869-2.328 5.196-5.197 5.196s-5.191-2.327-5.191-5.196c0-2.868 2.322-5.191 5.191-5.191s5.197 2.323 5.197 5.191z"/>
      <path d="M417.384 1290.163c-3.786 0-6.862-3.08-6.862-6.867 0-3.785 3.076-6.862 6.862-6.862 3.787 0 6.867 3.077 6.867 6.862 0 3.787-3.08 6.867-6.867 6.867zm0-10.389c-1.942 0-3.522 1.579-3.522 3.521 0 1.948 1.58 3.526 3.522 3.526 1.943 0 3.527-1.578 3.527-3.526 0-1.941-1.584-3.521-3.527-3.521z"/>
      <circle cx="394.46701" cy="1277.593" r="5.1939998"/>
      <path d="M394.469 1284.456c-3.785 0-6.866-3.076-6.866-6.863 0-3.785 3.081-6.865 6.866-6.865 3.786 0 6.863 3.08 6.863 6.865 0 3.787-3.077 6.863-6.863 6.863zm0-10.389c-1.943 0-3.525 1.583-3.525 3.525 0 1.944 1.582 3.523 3.525 3.523s3.521-1.579 3.521-3.523c0-1.942-1.578-3.525-3.521-3.525zm-15.295-8.918c0 2.869-2.323 5.193-5.192 5.193s-5.196-2.324-5.196-5.193c0-2.873 2.327-5.195 5.196-5.195s5.192 2.322 5.192 5.195z"/>
      <path d="M373.981 1272.013c-3.786 0-6.866-3.082-6.866-6.863 0-3.787 3.08-6.867 6.866-6.867 3.781 0 6.863 3.08 6.863 6.867.001 3.781-3.081 6.863-6.863 6.863zm0-10.39c-1.946 0-3.526 1.58-3.526 3.526 0 1.942 1.58 3.521 3.526 3.521 1.942 0 3.522-1.579 3.522-3.521.001-1.946-1.579-3.526-3.522-3.526zm92.201 11.868c2.03 2.029 2.03 5.318 0 7.348-2.029 2.024-5.316 2.024-7.347 0-2.028-2.029-2.028-5.318 0-7.348 2.03-2.028 5.317-2.028 7.347 0z"/>
      <path d="M462.509 1284.028c-1.835 0-3.557-.715-4.854-2.008-1.294-1.299-2.008-3.024-2.008-4.854 0-1.836.714-3.557 2.008-4.854 1.298-1.299 3.02-2.013 4.854-2.013s3.557.714 4.854 2.013c1.298 1.298 2.012 3.019 2.012 4.854 0 1.83-.714 3.556-2.012 4.854-1.298 1.293-3.02 2.008-4.854 2.008zm0-10.389c-.939 0-1.826.367-2.492 1.035-.667.666-1.03 1.549-1.03 2.492 0 .938.363 1.824 1.03 2.492.666.666 1.553 1.029 2.492 1.029.943 0 1.826-.368 2.492-1.029.666-.668 1.033-1.554 1.033-2.492 0-.943-.367-1.826-1.033-2.492-.666-.668-1.549-1.035-2.492-1.035zm24.312-12.162c2.029 2.028 2.029 5.316 0 7.342-2.029 2.03-5.318 2.03-7.348 0-2.028-2.025-2.028-5.313 0-7.342 2.03-2.03 5.319-2.03 7.348 0z"/>
      <path d="M483.147 1272.013c-1.835 0-3.557-.714-4.854-2.013-1.298-1.294-2.013-3.021-2.013-4.851 0-1.834.715-3.561 2.013-4.854 1.298-1.298 3.02-2.013 4.854-2.013s3.557.715 4.854 2.013c1.295 1.294 2.013 3.021 2.013 4.854 0 1.83-.718 3.557-2.013 4.851-1.297 1.299-3.019 2.013-4.854 2.013zm0-10.39c-.943 0-1.826.369-2.492 1.034-.666.667-1.034 1.549-1.034 2.492 0 .939.368 1.826 1.034 2.492.666.662 1.549 1.029 2.492 1.029.939 0 1.826-.367 2.493-1.029.665-.666 1.033-1.553 1.033-2.492 0-.943-.368-1.83-1.033-2.492-.666-.665-1.549-1.034-2.493-1.034zm-40.485 18c2.029 2.029 2.029 5.318 0 7.347-2.025 2.03-5.318 2.03-7.348 0-2.024-2.028-2.024-5.317 0-7.347 2.03-2.03 5.323-2.03 7.348 0z"/>
      <path d="M438.992 1290.163c-1.835 0-3.562-.714-4.854-2.011-2.679-2.68-2.679-7.032-.005-9.711 1.298-1.293 3.024-2.008 4.855-2.008 1.834 0 3.561.715 4.854 2.008 2.679 2.679 2.679 7.036 0 9.711-1.293 1.297-3.02 2.011-4.85 2.011zm-.004-10.389c-.939 0-1.826.363-2.492 1.029-1.372 1.376-1.372 3.614 0 4.985.666.666 1.553 1.033 2.496 1.033.939 0 1.826-.367 2.488-1.033 1.376-1.371 1.376-3.609 0-4.985-.667-.665-1.548-1.029-2.492-1.029zm-43.437-97.245h2.505s-.463-2.64 3.063-2.64v15.84h5.197v-23.563c0 .001-10.765 1.173-10.765 10.363zm0 26.403h2.505s-.463 2.64 3.063 2.64v-15.842h5.197v23.564s-10.765-1.173-10.765-10.362z"/>
      <path d="M398.33801 1194.337h11.69v2.7869999h-11.69zm43.82099 1.0201h10.822v2.7820001h-10.822z"/>
      <path d="M440.08301 1178.959h5.3829999v37.426998H440.08301zm-16.16101 15.763v-5.204s.229-8.94 6.764-8.94c6.536 0 5.637 9.875 5.637 11.207h-1.916s0-8.14-2.592-8.14c-2.593 0-6.876 11.908 1.466 16.563 8.338 4.656 3.086 15.862 3.086 15.862h-1.96s1.678-10.405-3.444-10.405c-5.075 0-3.461 21.607 5.006 22.011h.16v2.536s-12.206-.134-12.206-10.142-.787-14.561 4.283-17.213c-.001 0-4.284-2.932-4.284-8.138z"/>
      <circle cx="430.53101" cy="1174.546" r="3.464"/>
      <path d="M422.304 1171.422s6.806-13.132 14.846 0h5.01s-.371-10.453-12.616-10.453c-12.25 0-12.622 10.453-12.622 10.453zm19.855 23.935h-7.45s-1.605-.306-1.917-2.289h-2.263s.904 5.071 4.18 5.071h12.863"/>
      <path d="M434.40601 1191.104h1.916v2.8299999h-1.916zM445.34 1179.6s-.312-5.054-3.838-5.054h-4.141v3.635s3.872.373 3.872 5.192m-1.15 29.925s-3.15 5.845-7.447 6.662c0 0 1.857 7.659 12.491 7.659v-2.185s-4.914-.343-5.871-3.182c0 0 6.21-2.664 6.21-5.914s-5.383-3.04-5.383-3.04zm-31.508-46.83v59.265c1.69 1.168 3.491 2.198 5.378 3.067v-65.396c-1.887.87-3.687 1.896-5.378 3.064zm52.853 13.196c-1.464-2.781-3.275-5.353-5.384-7.649v48.664c2.108-2.293 3.92-4.864 5.384-7.649zm-13.363-14.784v61.701c1.918-1.156 3.717-2.484 5.383-3.964v-53.774c-1.666-1.48-3.465-2.808-5.383-3.963zm-27.647 5.599v59.156h-2.782v-59.156h-.715v59.218c1.735.648 3.535 1.168 5.383 1.549v-60.767z"/>
      <path d="M417.63599 1170.479h2.7820001v59.155998H417.63599zm-68.86798-253.05902h15v159.659h-15zm47.48599-88.71795h15v231.623h-15zm47.505-.19001h15v231.629h-15zm47.54801 119.73096h15v128.836h-15z"/>
      <path d="M427.521 1323.551c-69.617 0-126.254-56.64-126.254-126.259V917.42c0-17.233 14.019-31.254 31.25-31.254 5.947 0 11.512 1.67 16.25 4.566v-60.151c0-17.234 14.021-31.255 31.254-31.255 5.951 0 11.519 1.672 16.258 4.571.376-16.908 14.247-30.549 31.242-30.549 17.231 0 31.251 14.02 31.251 31.253v26.016c4.739-2.897 10.305-4.567 16.254-4.567 17.231 0 31.251 14.019 31.251 31.249v80.108c8.332-7.813 19.479-12.657 31.736-12.823.522-.062 1.056-.073 1.588-.039 3.407 0 11.915.755 17.31 7.74 4.37 5.657 5.289 13.49 2.732 23.281-5.867 22.45-5.867 33.815-5.867 48.205v193.521c0 69.619-56.637 126.259-126.255 126.259zm-95.003-422.385c-8.96 0-16.25 7.291-16.25 16.254v279.872c0 61.349 49.908 111.259 111.254 111.259s111.255-49.91 111.255-111.259v-193.521c0-14.854 0-27.683 6.354-51.997 1.265-4.846 1.232-8.607-.091-10.32-.972-1.258-3.087-1.791-4.83-1.891l-.039.016h-1.502c-17.86 0-32.392 14.531-32.392 32.394h-15V857.299c0-8.96-7.29-16.249-16.251-16.249-8.963 0-16.254 7.289-16.254 16.249h-15v-52.697c0-8.962-7.29-16.253-16.251-16.253-8.96 0-16.25 7.291-16.25 16.253v25.979h-15c0-8.963-7.29-16.255-16.25-16.255-8.962 0-16.254 7.292-16.254 16.255v86.839h-15c.001-8.963-7.289-16.254-16.249-16.254z"/>
    </g>
  </g>
</svg>